<?xml version="1.0" encoding="utf-8"?>
<!-- Generator: Adobe Illustrator 16.0.0, SVG Export Plug-In . SVG Version: 6.00 Build 0)  -->
<!DOCTYPE svg PUBLIC "-//W3C//DTD SVG 1.1//EN" "http://www.w3.org/Graphics/SVG/1.1/DTD/svg11.dtd">
<svg fill="#1f2746" version="1.1" id="Layer_1" xmlns="http://www.w3.org/2000/svg" xmlns:xlink="http://www.w3.org/1999/xlink" x="0px" y="0px"
	 width="50px" height="50px" viewBox="0 0 50 50" enable-background="new 0 0 50 50" xml:space="preserve">
<g>
	<path fill="#FFFFFF" d="M48.37,19.9c0-5.027-1.97-9.755-5.546-13.311c-2.35-2.337-5.279-4.021-8.473-4.87h-0.001
		C27.83-0.018,20.816,1.847,16.047,6.591c-3.576,3.553-5.545,8.282-5.545,13.31c-0.001,3.189,0.795,6.255,2.289,8.979L1.857,39.748
		c-1.089,1.084-1.089,2.839,0.001,3.921l3.675,3.653c1.086,1.083,2.852,1.08,3.94-0.002l10.942-10.877
		c1.298,0.699,2.673,1.258,4.107,1.641c6.521,1.737,13.533-0.13,18.302-4.872C46.4,29.659,48.37,24.928,48.37,19.9z M40.115,30.52
		c-3.956,3.932-9.561,5.227-14.603,3.883c-2.475-0.658-4.813-1.951-6.755-3.883c-5.898-5.864-5.896-15.374,0-21.236
		c3.958-3.934,9.56-5.228,14.603-3.886c2.475,0.659,4.814,1.954,6.756,3.884C46.015,15.147,46.015,24.655,40.115,30.52z"/>
	<g>
		<g>
			<path fill="#FFFFFF" d="M28.312,28.509c-1.847-0.083-3.628-0.495-5.34-1.231V23.1c0.978,0.494,2.041,0.908,3.188,1.238
				c1.147,0.332,2.155,0.497,3.024,0.497c0.718,0,1.243-0.087,1.574-0.257c0.334-0.172,0.502-0.459,0.502-0.862
				c0-0.277-0.12-0.511-0.361-0.704c-0.241-0.193-0.641-0.411-1.201-0.655c-0.563-0.243-1.32-0.537-2.272-0.882
				c-1.071-0.393-1.936-0.835-2.594-1.325c-0.658-0.492-1.137-1.041-1.437-1.649c-0.3-0.607-0.449-1.365-0.449-2.272
				c0-1.384,0.447-2.465,1.341-3.246c0.895-0.78,2.236-1.262,4.025-1.447V9.812h2.62v1.698c1.68,0.093,3.369,0.504,5.075,1.233
				L34.5,16.33c-1.763-0.789-3.354-1.183-4.771-1.183c-0.675,0-1.148,0.082-1.423,0.246c-0.274,0.164-0.411,0.404-0.411,0.723
				c0,0.278,0.099,0.506,0.297,0.687c0.199,0.181,0.543,0.381,1.031,0.603c0.489,0.224,1.17,0.48,2.038,0.774
				c1.765,0.621,3.027,1.328,3.796,2.12c0.767,0.792,1.152,1.814,1.152,3.063c0,1.41-0.449,2.555-1.348,3.436
				c-0.9,0.881-2.209,1.425-3.93,1.636v2.428h-2.62V28.509L28.312,28.509z"/>
		</g>
	</g>
</g>
</svg>
