<svg fill="#1f2746" height="512" viewBox="0 0 64 64" width="512" xmlns="http://www.w3.org/2000/svg"><g id="Passport-2" data-name="Passport"><path d="m9.843 21.215a.986.986 0 0 0 .324.686 10.976 10.976 0 0 0 19.666 0 .982.982 0 0 0 .324-.686 10.959 10.959 0 0 0 0-8.43.982.982 0 0 0 -.324-.686 10.976 10.976 0 0 0 -19.666 0 .986.986 0 0 0 -.324.686 10.959 10.959 0 0 0 0 8.43zm1.216-3.215h2.241a8.983 8.983 0 0 0 .561 2.167h-2.275a8.954 8.954 0 0 1 -.527-2.167zm4.241 0h3.7v2.167h-2.979a7.6 7.6 0 0 1 -.721-2.167zm3.7 4.167v1.8a17.691 17.691 0 0 1 -1.687-1.8zm2 1.917v-1.917h1.823a18.06 18.06 0 0 1 -1.823 1.917zm0-3.917v-2.167h3.854a7.566 7.566 0 0 1 -.727 2.167zm5.86-2.167h2.081a8.907 8.907 0 0 1 -.527 2.167h-2.12a8.951 8.951 0 0 0 .566-2.167zm2.081-2h-2.081a8.951 8.951 0 0 0 -.566-2.167h2.12a8.907 8.907 0 0 1 .527 2.167zm-4.087 0h-3.854v-2.167h3.127a7.566 7.566 0 0 1 .727 2.167zm-3.854-4.167v-1.917a18.06 18.06 0 0 1 1.823 1.917zm-2-1.8v1.8h-1.687a17.691 17.691 0 0 1 1.687-1.803zm0 3.8v2.167h-3.7a7.6 7.6 0 0 1 .719-2.167zm-5.7 2.167h-2.241a8.954 8.954 0 0 1 .527-2.167h2.271a8.983 8.983 0 0 0 -.557 2.167zm-.654 6.167h2.226a17.974 17.974 0 0 0 3.111 3.6 9.021 9.021 0 0 1 -5.341-3.6zm9.545 3.553a17.911 17.911 0 0 0 3.088-3.553h2.083a9.019 9.019 0 0 1 -5.175 3.553zm5.171-13.887h-2.087a17.911 17.911 0 0 0 -3.088-3.553 9.019 9.019 0 0 1 5.171 3.553zm-9.379-3.6a17.974 17.974 0 0 0 -3.111 3.6h-2.23a9.021 9.021 0 0 1 5.337-3.596z"/><path d="m31 33h-22a1 1 0 0 0 -1 1v5a1 1 0 0 0 1 1h22a1 1 0 0 0 1-1v-5a1 1 0 0 0 -1-1zm-1 5h-20v-3h20z"/><path d="m31 41h-22a1 1 0 0 0 0 2h22a1 1 0 0 0 0-2z"/><path d="m25 44h-16a1 1 0 0 0 0 2h16a1 1 0 0 0 0-2z"/><path d="m29 44h-1a1 1 0 0 0 0 2h1a1 1 0 0 0 0-2z"/><path d="m60.34 7.49-21.34-2.87v-.62a3.009 3.009 0 0 0 -3-3h-32a3.009 3.009 0 0 0 -3 3v50a3.009 3.009 0 0 0 3 3h14.83a2.77 2.77 0 0 0 .34.57 3 3 0 0 0 1.98 1.15l31.72 4.27a2.693 2.693 0 0 0 .4.03 3 3 0 0 0 2.97-2.6l6.67-49.55a3.007 3.007 0 0 0 -2.57-3.38zm-21.34 31.44 10.86 1.46-.4 2.97-10.46-1.41zm-35 16.07a1 1 0 0 1 -1-1v-50a1 1 0 0 1 1-1h32a1 1 0 0 1 1 1v50a1 1 0 0 1 -1 1zm50.26 5.15a.968.968 0 0 1 -.39.66.927.927 0 0 1 -.59.21.757.757 0 0 1 -.15-.01l-29.78-4.01h12.65a3.009 3.009 0 0 0 3-3v-3.98l4.43.6a.66.66 0 0 0 .14.01 1 1 0 0 0 .13-1.99l-4.7-.63v-1.01l10.78 1.45a.615.615 0 0 0 .13.01 1 1 0 0 0 .14-1.99l-11.05-1.49v-1.01l11.18 1.51h.13a.986.986 0 0 0 .99-.86l.67-4.96a.981.981 0 0 0 -.86-1.12l-12.11-1.63v-30.28l21.07 2.84a1.01 1.01 0 0 1 .86 1.13z"/><path d="m47.664 49.173-.991-.133a1 1 0 1 0 -.268 1.982l.991.134a1.043 1.043 0 0 0 .135.009 1 1 0 0 0 .133-1.992z"/></g></svg>