<?xml version="1.0" encoding="iso-8859-1"?>
<!-- Generator: Adobe Illustrator 19.0.0, SVG Export Plug-In . SVG Version: 6.00 Build 0)  -->
<svg version="1.1" id="Layer_1" xmlns="http://www.w3.org/2000/svg" xmlns:xlink="http://www.w3.org/1999/xlink" x="0px" y="0px"
	 viewBox="0 0 512.001 512.001" style="enable-background:new 0 0 512.001 512.001;" xml:space="preserve">
<g>
	<g>
		<path d="M459.457,77.988c-0.803-9.423-9.093-16.419-18.514-15.61c-60.401,5.139-75.137-5.891-114.517-35.374
			c-5.528-4.139-11.246-8.42-17.648-13.076C285.622-2.913,265.206-1.45,252.157,2.747c-13.586,4.368-25.309,13.54-35.168,24.529
			l-7.251-5.99c-8.785-7.256-21.484-7.256-30.269,0L61.111,119.056c-5.466,4.515-8.63,11.234-8.63,18.322v350.859
			c0,13.125,10.639,23.764,23.764,23.764H312.96c13.125,0,23.765-10.64,23.765-23.764V137.378c0-7.088-3.164-13.807-8.63-18.322
			l-84.711-69.975c5.956-6.497,12.442-11.538,19.256-13.73c5.169-1.663,13.49-2.821,25.995,6.274
			c6.209,4.517,11.831,8.724,17.266,12.794c35.915,26.889,57.904,43.357,110.412,43.356c8.346,0,17.469-0.417,27.533-1.273
			C453.269,95.7,460.258,87.412,459.457,77.988z M193.398,62.002c-8.902,16.808-13.928,31.336-15.049,34.721
			c-2.973,8.977,1.894,18.667,10.871,21.64c1.787,0.592,3.602,0.873,5.387,0.873c7.182,0,13.871-4.553,16.254-11.744
			c2.232-6.738,7.205-19.024,14.09-31.638c6.093,7.039,9.789,16.212,9.789,26.254c0,22.167-17.97,40.136-40.136,40.136
			s-40.136-17.97-40.136-40.136C154.468,80.346,171.791,62.641,193.398,62.002z M106.093,316.027v-34.692
			c0-24.186,15.881-32.982,36.646-32.982c20.522,0,36.647,8.796,36.647,32.982v34.692c0,24.186-16.125,32.982-36.647,32.982
			C121.975,349.009,106.093,340.214,106.093,316.027z M291.523,360.003v34.692c0,24.186-16.124,32.982-36.646,32.982
			c-20.766,0-36.646-8.795-36.646-32.982v-34.692c0-24.186,15.88-32.982,36.646-32.982
			C275.4,327.02,291.523,335.815,291.523,360.003z M255.121,251.285c0,1.466-0.244,3.176-0.976,4.641l-85.997,176.146
			c-1.71,3.665-6.353,6.107-10.994,6.107c-8.307,0-13.682-6.841-13.682-12.948c0-1.466,0.488-3.176,1.222-4.641l85.752-176.146
			c1.954-4.153,5.863-6.107,10.261-6.107C247.548,238.337,255.121,243.468,255.121,251.285z"/>
	</g>
</g>
<g>
	<g>
		<path d="M142.74,269.608c-7.573,0-11.97,3.665-11.97,11.726v34.692c0,8.062,4.397,11.727,11.97,11.727
			c7.574,0,12.217-3.665,12.217-11.727v-34.692C154.956,273.273,150.314,269.608,142.74,269.608z"/>
	</g>
</g>
<g>
	<g>
		<path d="M254.877,348.275c-7.573,0-11.972,3.665-11.972,11.727v34.692c0,8.062,4.398,11.726,11.972,11.726
			c7.573,0,12.216-3.665,12.216-11.726v-34.692C267.093,351.94,262.45,348.275,254.877,348.275z"/>
	</g>
</g>
<g>
</g>
<g>
</g>
<g>
</g>
<g>
</g>
<g>
</g>
<g>
</g>
<g>
</g>
<g>
</g>
<g>
</g>
<g>
</g>
<g>
</g>
<g>
</g>
<g>
</g>
<g>
</g>
<g>
</g>
</svg>
