<svg fill="#1f2746" height="512pt" viewBox="-25 0 512 512" width="512pt" xmlns="http://www.w3.org/2000/svg"><path d="m115.332031 201.609375h-22.96875c-5.523437 0-10-4.476563-10-10s4.476563-10 10-10h1.039063c.125-.324219.265625-.644531.425781-.960937 2.511719-4.917969 8.53125-6.875 13.453125-4.367188l12.589844 6.417969c4.121094 2.101562 6.261718 6.75 5.183594 11.246093-1.078126 4.496094-5.101563 7.664063-9.722657 7.664063zm0 0"/><path d="m218.5625 201.609375h-22.96875c-4.621094 0-8.644531-3.171875-9.722656-7.664063-1.082032-4.496093 1.0625-9.144531 5.179687-11.246093l12.59375-6.417969c4.917969-2.511719 10.941407-.554688 13.449219 4.367188.160156.316406.304688.636718.429688.960937h1.039062c5.523438 0 10 4.476563 10 10s-4.476562 10-10 10zm0 0"/><path d="m156.078125 260.847656c-6.234375 0-12.46875-2.375-17.21875-7.121094-3.90625-3.902343-3.90625-10.234374-.003906-14.140624 3.90625-3.90625 10.238281-3.90625 14.144531-.003907 1.699219 1.699219 4.460938 1.699219 6.160156 0 3.90625-3.902343 10.238282-3.902343 14.144532.003907 3.902343 3.90625 3.902343 10.238281-.003907 14.140624-4.746093 4.746094-10.984375 7.121094-17.222656 7.121094zm0 0"/><path d="m301.878906 125.6875h-17.761718c-1.34375-69.535156-58.328126-125.6875-128.179688-125.6875-69.847656 0-126.832031 56.152344-128.175781 125.6875h-17.761719c-5.523438 0-10 4.476562-10 10s4.476562 10 10 10h10.894531c-5.339843 7.523438-8.535156 16.65625-8.671875 26.492188-1.101562 79.816406-1.097656 79.96875-1.097656 80.132812.15625 23.527344 9.410156 43.613281 26.765625 58.09375.765625.640625 1.550781 1.265625 2.34375 1.878906-15.789063 3.988282-27.507813 18.3125-27.507813 35.324219v154.246094c0 5.523437 4.476563 10 10 10h266.421876c5.523437 0 10-4.476563 10-10v-154.25c0-16.976563-11.675782-31.28125-27.417969-35.296875.714843-.554688 1.417969-1.121094 2.109375-1.695313 17.433594-14.488281 26.738281-34.617187 26.910156-58.1875.003906-.191406.003906-.355469-1.09375-79.960937-.136719-9.953125-3.386719-19.1875-8.808594-26.777344h11.03125c5.519532 0 10-4.476562 10-10s-4.480468-10-10-10zm-59.640625 80.863281c-1.984375 43.625-24.902343 69.113281-69.886719 77.835938-5.28125 1.023437-8.808593 6.046875-7.976562 11.359375l2.410156 15.433594h-21.6875l2.410156-15.433594c.828126-5.3125-2.695312-10.335938-7.976562-11.359375-47.125-9.136719-70.03125-36.667969-70.03125-84.175781v-54.523438h172.738281zm-115.933593 95.347657-1.164063 7.449218c-12.074219-2.960937-30.996094-10.503906-43.394531-29.539062 11.753906 10.054687 26.644531 17.464844 44.558594 22.089844zm-18.867188 29.320312h26.179688l-26.179688 19.246094zm97.003906 0v19.246094l-26.179687-19.246094zm-17.738281-22.125-1.125-7.195312c17.175781-4.433594 31.574219-11.433594 43.09375-20.867188-12.292969 17.5625-30.234375 24.976562-41.96875 28.0625zm-30.765625-289.09375c58.824219 0 106.832031 47.183594 108.175781 105.6875h-216.347656c1.34375-58.503906 49.351563-105.6875 108.171875-105.6875zm-124.8125 232.261719c.023438-1.71875.410156-29.972657 1.097656-79.804688.15625-11.238281 7.246094-20.878906 17.136719-24.84375v84.902344c0 39.484375 15.53125 62.960937 31.925781 76.738281-26.890625-5.605468-49.894531-23.851562-50.160156-56.992187zm1.601562 239.59375v-105.183594h17.984376v105.183594zm246.421876 0h-17.980469v-105.183594h17.980469zm0-144.25v19.066406h-27.980469c-5.523438 0-10 4.476563-10 10v115.183594h-170.457031v-115.183594c0-5.523437-4.476563-10-10-10h-27.984376v-19.066406c0-9.054688 7.371094-16.425781 16.429688-16.425781h38.28125v39.046874c0 3.769532 2.121094 7.21875 5.484375 8.921876 3.363281 1.703124 7.398437 1.371093 10.4375-.863282l52.578125-38.652344 52.578125 38.652344c1.75 1.285156 3.832031 1.941406 5.925781 1.941406 1.539063 0 3.085938-.355468 4.511719-1.078124 3.367187-1.703126 5.484375-5.152344 5.484375-8.921876v-39.046874h38.285156c9.058594 0 16.425782 7.371093 16.425782 16.425781zm-49.929688-37.980469c16.785156-13.71875 33.019531-37.28125 33.019531-77.109375l.140625-84.867187c9.976563 4.011718 17.125 13.746093 17.28125 25.089843.683594 49.671875 1.070313 77.855469 1.09375 79.597657-.285156 33.773437-24.042968 52.058593-51.535156 57.289062zm0 0"/><path d="m457.179688 166.914062-108.605469-59.355468c-3.097657-1.695313-6.859375-1.628906-9.894531.175781-3.039063 1.800781-4.902344 5.070313-4.902344 8.601563v385.664062c0 5.523438 4.480468 10 10 10h32.886718c5.519532 0 10-4.476562 10-10v-126.46875c0-5.523438-4.480468-10-10-10-5.523437 0-10 4.476562-10 10v116.46875h-12.886718v-251.019531l12.886718-7.042969v45.691406c0 5.523438 4.476563 10 10 10 5.519532 0 10-4.476562 10-10v-56.621094l70.515626-38.539062c3.210937-1.753906 5.207031-5.121094 5.207031-8.777344-.003907-3.65625-2-7.023437-5.207031-8.777344zm-103.402344 51.273438v-84.992188l77.753906 42.496094zm0 0"/><path d="m376.660156 335.46875c-.648437 0-1.308594-.070312-1.949218-.199219-.640626-.128906-1.269532-.320312-1.878907-.570312-.601562-.25-1.179687-.558594-1.71875-.917969-.550781-.359375-1.0625-.78125-1.523437-1.242188-.457032-.460937-.878906-.96875-1.25-1.519531-.359375-.539062-.667969-1.121093-.917969-1.730469-.25-.597656-.441406-1.230468-.570313-1.867187-.128906-.640625-.191406-1.300781-.191406-1.953125 0-.648438.0625-1.308594.191406-1.957031.128907-.632813.320313-1.261719.570313-1.871094.25-.601563.558594-1.179687.917969-1.71875.371094-.550781.792968-1.0625 1.25-1.523437.460937-.457032.972656-.878907 1.523437-1.25.539063-.359376 1.117188-.660157 1.71875-.910157.609375-.25 1.238281-.449219 1.878907-.566406 1.292968-.261719 2.609374-.261719 3.902343 0 .640625.117187 1.269531.316406 1.867188.566406.609375.25 1.191406.550781 1.730469.910157.550781.371093 1.0625.792968 1.519531 1.25.460937.460937.882812.972656 1.242187 1.523437.359375.539063.667969 1.117187.917969 1.71875.25.609375.449219 1.238281.570313 1.871094.128906.648437.199218 1.308593.199218 1.957031 0 2.632812-1.070312 5.210938-2.929687 7.070312-.460938.460938-.96875.882813-1.519531 1.242188-.539063.359375-1.121094.667969-1.730469.917969-.597657.25-1.230469.441406-1.871094.570312-.636719.128907-1.296875.199219-1.949219.199219zm0 0"/></svg>