<?xml version="1.0" encoding="iso-8859-1"?>
<!-- Generator: Adobe Illustrator 18.0.0, SVG Export Plug-In . SVG Version: 6.00 Build 0)  -->
<!DOCTYPE svg PUBLIC "-//W3C//DTD SVG 1.1//EN" "http://www.w3.org/Graphics/SVG/1.1/DTD/svg11.dtd">
<svg version="1.1" id="Capa_1" xmlns="http://www.w3.org/2000/svg" xmlns:xlink="http://www.w3.org/1999/xlink" x="0px" y="0px"
	 viewBox="0 0 371.424 371.424" style="enable-background:new 0 0 371.424 371.424;" xml:space="preserve">
<g>
	<g>
		<path d="M243.204,68.903H98.351c-9.295,0-16.855,7.561-16.855,16.854v18.363c0,9.294,7.561,16.855,16.855,16.855h144.853
			c9.293,0,16.854-7.562,16.854-16.855V85.757C260.058,76.463,252.497,68.903,243.204,68.903z M246.058,104.12
			c0,1.574-1.281,2.855-2.854,2.855H98.351c-1.574,0-2.855-1.281-2.855-2.855V85.757c0-1.574,1.281-2.854,2.855-2.854h144.853
			c1.572,0,2.854,1.28,2.854,2.854V104.12z"/>
		<path d="M170.777,142.894c-46.184,0-83.756,37.571-83.756,83.755c0,46.182,37.572,83.754,83.756,83.754
			c46.183,0,83.756-37.572,83.756-83.754C254.533,180.465,216.96,142.894,170.777,142.894z M140.755,163.695
			c-3.399,5.117-7.115,11.415-10.496,18.688h-13.352C123.365,174.539,131.499,168.127,140.755,163.695z M101.372,219.649
			c0.828-8.262,3.1-16.104,6.564-23.266h16.783c-0.115,0.352-0.234,0.698-0.348,1.053c-2.115,6.646-3.834,14.123-4.641,22.213
			 M107.937,256.914c-3.465-7.164-5.736-15.005-6.564-23.266h17.951c0.313,7.438,1.5,15.236,3.889,23.266H107.937z M116.908,270.914
			h11.649c2.758,5.882,6.227,11.842,10.51,17.832C130.511,284.361,122.966,278.275,116.908,270.914z M163.777,296.051
			c-0.182-0.018-0.361-0.043-0.543-0.063c-0.274-0.461-0.598-0.901-0.986-1.304c-7.416-7.678-13.412-15.608-17.996-23.771h19.525
			V296.051z M163.777,256.914h-25.914c-2.688-7.579-4.221-15.339-4.6-23.266h30.514V256.914z M163.777,219.649h-30
			c0.686-5.762,1.941-11.603,3.795-17.52c0.617-1.966,1.287-3.879,1.99-5.746h24.215V219.649z M163.777,182.383h-17.861
			c7.748-14.544,16.215-23.644,16.383-23.822c0.367-0.389,0.676-0.811,0.938-1.254c0.182-0.02,0.359-0.044,0.541-0.062V182.383z
			 M224.646,182.383h-13.352c-3.381-7.274-7.098-13.571-10.498-18.688C210.054,168.126,218.189,174.539,224.646,182.383z
			 M177.777,157.246c0.18,0.018,0.359,0.042,0.539,0.062c0.264,0.445,0.574,0.869,0.945,1.26c0.117,0.124,8.609,9.18,16.391,23.816
			h-17.875V157.246z M177.777,196.383h24.217c0.648,1.724,1.27,3.488,1.846,5.298c1.932,6.071,3.238,12.061,3.941,17.968h-30.004
			V196.383z M177.777,233.649h30.514c-0.379,7.927-1.912,15.686-4.6,23.266h-25.914V233.649z M179.304,294.685
			c-0.389,0.402-0.713,0.843-0.984,1.304c-0.182,0.02-0.361,0.045-0.543,0.063v-25.137H197.3
			C192.716,279.076,186.722,287.006,179.304,294.685z M212.997,270.914h11.648c-6.061,7.36-13.605,13.446-22.16,17.833
			 M233.617,256.914h-15.275c2.387-8.029,3.576-15.828,3.889-23.266h17.951C239.353,241.91,237.081,249.75,233.617,256.914z
			 M240.181,219.649H221.82c-0.807-8.09-2.525-15.566-4.639-22.213c-0.113-0.354-0.234-0.701-0.35-1.053h16.785
			C237.081,203.545,239.353,211.387,240.181,219.649z"/>
		<g>
			<path d="M307.742,39.173c0.004,0.225,0.006,0.473,0.008,0.713C307.747,39.646,307.745,39.398,307.742,39.173z"/>
			<path d="M307.755,40.424c0.004,0.273,0.006,0.568,0.01,0.858C307.761,40.992,307.759,40.697,307.755,40.424z"/>
			<path d="M307.779,42.844c-0.004-0.35-0.006-0.701-0.01-1.032C307.773,42.143,307.775,42.494,307.779,42.844L307.779,42.844z"/>
			<path d="M307.827,50.612c0.002,0.497,0.004,1.006,0.008,1.522C307.831,51.618,307.829,51.108,307.827,50.612z"/>
			<path d="M307.818,48.586c0.002,0.457,0.004,0.929,0.006,1.405C307.822,49.515,307.82,49.043,307.818,48.586z"/>
			<path d="M307.806,46.739c0.002,0.443,0.006,0.903,0.008,1.368C307.812,47.642,307.808,47.182,307.806,46.739z"/>
			<path d="M307.794,44.926c0.002,0.398,0.006,0.815,0.008,1.233C307.8,45.74,307.796,45.324,307.794,44.926z"/>
			<path d="M307.872,62.818c0,0.275,0.002,0.553,0.002,0.831C307.874,63.37,307.872,63.094,307.872,62.818z"/>
			<path d="M307.847,55.064c0.002,0.455,0.004,0.919,0.004,1.387C307.851,55.983,307.849,55.519,307.847,55.064z"/>
			<path d="M307.865,59.999c0,0.417,0.002,0.839,0.004,1.265C307.867,60.838,307.865,60.417,307.865,59.999z"/>
			<path d="M307.837,52.727c0.002,0.487,0.004,0.986,0.006,1.491C307.841,53.712,307.839,53.214,307.837,52.727z"/>
			<path d="M307.783,43.28c0.002,0.43,0.006,0.879,0.01,1.337C307.788,44.16,307.785,43.709,307.783,43.28z"/>
			<path d="M307.779,42.985c0-0.048,0-0.094,0-0.142v0C307.779,42.892,307.779,42.937,307.779,42.985z"/>
			<path d="M307.892,71.682c0,0.096,0,0.19,0.002,0.287C307.892,71.872,307.892,71.778,307.892,71.682z"/>
			<path d="M307.878,65.49c0.002,0.369,0.002,0.737,0.004,1.111C307.88,66.228,307.88,65.858,307.878,65.49z"/>
			<path d="M307.886,68.153c0,0.39,0,0.78,0.002,1.175C307.886,68.932,307.886,68.542,307.886,68.153z"/>
			<path d="M307.855,57.456c0.002,0.432,0.004,0.87,0.006,1.312C307.859,58.326,307.857,57.888,307.855,57.456z"/>
			<path d="M321.726,37.856c-0.199-13.803-4.545-24.118-12.916-30.657c-12.803-10-30.246-6.853-33.004-6.274L65.577,31.452
				c-8.934,0.409-16.082,7.783-16.082,16.815V354.57c0,9.294,7.563,16.855,16.857,16.855h208.85c9.295,0,16.855-7.561,16.855-16.855
				v-3.802h12.055c0.016,0,0.031,0,0.047,0c1.361,0,6.836-0.306,11.52-4.916c4.023-3.958,6.063-9.678,6.063-17
				c0-11.91,0.029-34.774,0.063-62.72C321.906,184.413,322.058,60.919,321.726,37.856z M278.058,354.57
				c0,1.574-1.281,2.855-2.855,2.855H66.353c-1.576,0-2.857-1.28-2.857-2.855V48.267c0-1.574,1.281-2.854,2.857-2.854h208.85
				c1.574,0,2.855,1.281,2.855,2.854V354.57z M307.742,328.852c0,4.829-1.348,7.71-3.701,7.916h-11.982V48.267
				c0-9.294-7.56-16.855-16.855-16.855h-36.18h-75.752L278.06,14.744c0.18-0.026,0.387-0.066,0.563-0.106
				c0.133-0.03,13.316-2.908,21.621,3.634c4.832,3.807,7.35,10.463,7.484,19.785c0.004,0.349,0.01,0.722,0.014,1.116
				c0.004,0.225,0.006,0.473,0.008,0.713c0.002,0.18,0.004,0.35,0.006,0.538c0.004,0.273,0.006,0.568,0.01,0.858
				c0.002,0.178,0.004,0.347,0.004,0.53c0.004,0.331,0.006,0.682,0.01,1.032c0,0.047,0,0.093,0,0.142
				c0.002,0.1,0.002,0.194,0.004,0.294c0.002,0.429,0.006,0.88,0.01,1.337c0,0.104,0.002,0.203,0.002,0.309
				c0.002,0.398,0.006,0.814,0.008,1.233c0.002,0.193,0.002,0.382,0.004,0.58c0.002,0.443,0.006,0.903,0.008,1.368
				c0.002,0.16,0.002,0.316,0.004,0.479c0.002,0.457,0.004,0.929,0.006,1.405c0.002,0.206,0.002,0.41,0.004,0.62
				c0.002,0.496,0.004,1.006,0.008,1.522c0,0.197,0,0.393,0.002,0.592c0.002,0.488,0.004,0.986,0.006,1.491
				c0.002,0.28,0.002,0.561,0.004,0.847c0.002,0.455,0.004,0.919,0.004,1.387c0.002,0.333,0.004,0.667,0.004,1.006
				c0.002,0.432,0.004,0.869,0.006,1.312c0,0.406,0.002,0.816,0.004,1.231c0,0.417,0.002,0.839,0.004,1.265
				c0,0.513,0.002,1.029,0.004,1.554c0,0.276,0.002,0.552,0.002,0.831c0.002,0.605,0.004,1.22,0.004,1.84
				c0.002,0.368,0.002,0.738,0.004,1.111c0,0.511,0.002,1.03,0.004,1.552c0,0.39,0,0.779,0.002,1.175
				c0.002,0.775,0.004,1.559,0.004,2.354c0,0.096,0,0.19,0.002,0.287c0.09,48.239-0.014,132.923-0.09,194.146
				C307.771,294.067,307.742,316.938,307.742,328.852z"/>
		</g>
	</g>
</g>
<g>
</g>
<g>
</g>
<g>
</g>
<g>
</g>
<g>
</g>
<g>
</g>
<g>
</g>
<g>
</g>
<g>
</g>
<g>
</g>
<g>
</g>
<g>
</g>
<g>
</g>
<g>
</g>
<g>
</g>
</svg>
